<?xml version="1.0" encoding="iso-8859-1"?>
<!-- Generator: Adobe Illustrator 19.0.0, SVG Export Plug-In . SVG Version: 6.00 Build 0)  -->
<svg version="1.1" id="Layer_1" xmlns="http://www.w3.org/2000/svg" xmlns:xlink="http://www.w3.org/1999/xlink" x="0px" y="0px"
	 viewBox="0 0 512 512" style="enable-background:new 0 0 512 512;" xml:space="preserve">
<path style="fill:#7F8499;" d="M418.133,490.667H93.867c-9.426,0-17.067-7.641-17.067-17.067v-17.067
	c0-9.426,7.641-17.067,17.067-17.067h324.267c9.426,0,17.067,7.641,17.067,17.067V473.6
	C435.2,483.025,427.558,490.667,418.133,490.667z"/>
<path style="fill:#FF5050;" d="M386.482,163.713c-1.402-17.754-16.218-31.446-34.028-31.446h-192.91
	c-17.809,0-32.626,13.693-34.028,31.446l-21.77,275.75l304.506,0.006L386.482,163.713z"/>
<g>
	<path style="fill:#FF8269;" d="M76.8,285.867H8.533c-4.717,0-8.533-3.821-8.533-8.533s3.817-8.533,8.533-8.533H76.8
		c4.717,0,8.533,3.821,8.533,8.533S81.517,285.867,76.8,285.867z"/>
	<path style="fill:#FF8269;" d="M503.467,285.867H435.2c-4.717,0-8.533-3.821-8.533-8.533s3.817-8.533,8.533-8.533h68.267
		c4.717,0,8.533,3.821,8.533,8.533S508.182,285.867,503.467,285.867z"/>
	<path style="fill:#FF8269;" d="M256,106.667c-4.717,0-8.533-3.821-8.533-8.533V29.867c0-4.713,3.817-8.533,8.533-8.533
		c4.717,0,8.533,3.821,8.533,8.533v68.267C264.533,102.846,260.717,106.667,256,106.667z"/>
	<path style="fill:#FF8269;" d="M102.4,132.267c-2.183,0-4.367-0.833-6.033-2.5l-21.383-21.383c-3.333-3.333-3.333-8.733,0-12.066
		s8.733-3.333,12.066,0l21.383,21.383c3.333,3.333,3.333,8.733,0,12.066C106.767,131.434,104.583,132.267,102.4,132.267z"/>
	<path style="fill:#FF8269;" d="M409.6,132.267c-2.183,0-4.367-0.833-6.033-2.5c-3.333-3.333-3.333-8.733,0-12.066l21.383-21.383
		c3.333-3.333,8.734-3.333,12.066,0c3.333,3.333,3.333,8.733,0,12.066l-21.383,21.383
		C413.966,131.434,411.782,132.267,409.6,132.267z"/>
</g>
<g>
	<path style="fill:#FFAF91;" d="M27.366,380.571c-3.342,0-6.525-1.987-7.884-5.27c-1.799-4.354,0.267-9.346,4.617-11.15
		l49.434-20.475c4.325-1.792,9.35,0.262,11.15,4.617c1.799,4.354-0.267,9.346-4.617,11.15l-49.434,20.475
		C29.567,380.358,28.459,380.571,27.366,380.571z"/>
	<path style="fill:#FFAF91;" d="M426.667,215.179c-3.35,0-6.525-1.987-7.884-5.275c-1.801-4.354,0.267-9.342,4.617-11.146
		l17.067-7.067c4.341-1.788,9.35,0.262,11.15,4.621c1.801,4.354-0.267,9.342-4.617,11.146l-17.067,7.067
		C428.866,214.966,427.758,215.179,426.667,215.179z"/>
	<path style="fill:#FFAF91;" d="M469.333,197.504c-3.35,0-6.525-1.987-7.884-5.275c-1.801-4.354,0.267-9.346,4.617-11.146
		l15.3-6.334c4.35-1.801,9.35,0.262,11.15,4.621c1.801,4.354-0.267,9.346-4.617,11.146l-15.3,6.334
		C471.533,197.292,470.425,197.504,469.333,197.504z"/>
	<path style="fill:#FFAF91;" d="M181.758,106.625c-3.342,0-6.525-1.983-7.884-5.27l-20.459-49.383
		c-1.801-4.354,0.267-9.346,4.617-11.15c4.334-1.792,9.35,0.254,11.15,4.617l20.459,49.383c1.801,4.354-0.267,9.346-4.617,11.15
		C183.958,106.413,182.85,106.625,181.758,106.625z"/>
	<path style="fill:#FFAF91;" d="M42.675,197.508c-1.091,0-2.199-0.212-3.266-0.654L24.1,190.517
		c-4.35-1.801-6.417-6.791-4.617-11.146c1.799-4.363,6.817-6.417,11.15-4.621l15.309,6.337c4.35,1.801,6.417,6.791,4.617,11.146
		C49.2,195.521,46.017,197.508,42.675,197.508z"/>
	<path style="fill:#FFAF91;" d="M85.333,215.179c-1.091,0-2.199-0.212-3.266-0.654l-17.042-7.062
		c-4.35-1.804-6.425-6.796-4.617-11.15c1.801-4.367,6.825-6.404,11.15-4.617l17.042,7.062c4.35,1.804,6.417,6.796,4.617,11.15
		C91.858,213.196,88.675,215.179,85.333,215.179z"/>
	<path style="fill:#FFAF91;" d="M484.633,380.571c-1.091,0-2.201-0.212-3.267-0.654l-49.467-20.487
		c-4.35-1.804-6.417-6.796-4.617-11.15c1.801-4.354,6.817-6.417,11.15-4.617l49.467,20.487c4.35,1.804,6.417,6.796,4.617,11.15
		C491.157,378.583,487.974,380.571,484.633,380.571z"/>
	<path style="fill:#FFAF91;" d="M330.225,106.671c-1.091,0-2.201-0.212-3.267-0.654c-4.35-1.804-6.417-6.796-4.617-11.15
		l20.475-49.429c1.801-4.354,6.809-6.413,11.15-4.617c4.35,1.804,6.417,6.796,4.617,11.15l-20.475,49.429
		C336.75,104.684,333.566,106.671,330.225,106.671z"/>
</g>
<path style="fill:#FF7873;" d="M365.207,338.671c-5.517,0-10.183-4.242-10.625-9.829l-7.008-88.771
	c-0.467-5.871,3.925-11.008,9.792-11.471c6.05-0.446,11.008,3.93,11.475,9.796l7.008,88.771c0.467,5.871-3.925,11.008-9.792,11.471
	C365.775,338.658,365.483,338.671,365.207,338.671z M354.892,207.983c-5.508,0-10.183-4.238-10.625-9.825l-0.842-10.617
	c-0.467-5.871,3.917-11.008,9.792-11.475c5.783-0.442,11.017,3.917,11.475,9.792l0.842,10.617
	c0.467,5.871-3.917,11.008-9.792,11.475C355.458,207.97,355.174,207.983,354.892,207.983z"/>
<path style="fill:#707487;" d="M153.6,473.6v-17.067c0-9.426,7.642-17.067,17.067-17.067h-76.8c-9.425,0-17.067,7.641-17.067,17.067
	V473.6c0,9.425,7.642,17.067,17.067,17.067h76.8C161.241,490.667,153.6,483.025,153.6,473.6z"/>
<path style="fill:#C84146;" d="M408.253,439.469l-1.348-17.069H193.175c-9.955,0-17.797-8.485-17.013-18.41l18.969-240.276
	c1.402-17.755,16.218-31.447,34.028-31.447h-69.614c-17.809,0-32.626,13.693-34.028,31.446l-21.77,275.75l304.506,0.006V439.469
	L408.253,439.469z"/>
<g>
</g>
<g>
</g>
<g>
</g>
<g>
</g>
<g>
</g>
<g>
</g>
<g>
</g>
<g>
</g>
<g>
</g>
<g>
</g>
<g>
</g>
<g>
</g>
<g>
</g>
<g>
</g>
<g>
</g>
</svg>
