<?xml version="1.0" encoding="iso-8859-1"?>
<!-- Generator: Adobe Illustrator 19.0.0, SVG Export Plug-In . SVG Version: 6.00 Build 0)  -->
<svg version="1.1" id="Layer_1" xmlns="http://www.w3.org/2000/svg" xmlns:xlink="http://www.w3.org/1999/xlink" x="0px" y="0px"
	 viewBox="0 0 512 512" style="enable-background:new 0 0 512 512;" xml:space="preserve">
<path style="fill:#D1E5F5;" d="M245.221,105.095c35.718,0,43.116,7.398,43.116,43.116v97.011H148.211V105.095
	C148.211,105.095,202.105,105.095,245.221,105.095z"/>
<path style="fill:#B4D8F1;" d="M148.211,245.221L288.337,256V148.211c0-17.859-1.85-28.638-8.164-34.952L148.211,245.221z"/>
<path style="fill:#88888F;" d="M245.221,83.537c-43.116,0-97.011,0-97.011,0v43.116h97.011c11.906,0,21.558,9.651,21.558,21.558
	v97.011h43.116v-97.011C309.895,112.492,280.939,83.537,245.221,83.537z"/>
<path style="fill:#797781;" d="M256,84.448v45.112c6.438,3.73,10.779,10.675,10.779,18.651V256h43.116V148.211
	C309.895,116.166,286.584,89.582,256,84.448z"/>
<rect x="277.558" y="266.779" style="fill:#EFC27B;" width="107.789" height="129.347"/>
<path style="fill:#797781;" d="M202.105,355.705h-32.337c-4.466,0-8.084-3.62-8.084-8.084c0-4.465,3.618-8.084,8.084-8.084h32.337
	c4.466,0,8.084,3.62,8.084,8.084C210.189,352.086,206.571,355.705,202.105,355.705z"/>
<polygon style="fill:#F8E99B;" points="148.211,245.221 202.105,309.895 202.105,396.126 309.895,396.126 309.895,299.116 
	374.568,299.116 439.242,374.568 471.579,374.568 503.916,309.895 471.579,245.221 "/>
<circle style="fill:#88888F;" cx="88.926" cy="347.621" r="80.842"/>
<rect x="8.084" y="320.674" style="fill:#EDEDED;" width="161.684" height="53.895"/>
<polygon style="fill:#F6E27D;" points="471.579,245.221 256,245.221 256,396.126 309.895,396.126 309.895,299.116 374.568,299.116 
	439.242,374.568 471.579,374.568 503.916,309.895 "/>
<circle style="fill:#797781;" cx="374.568" cy="363.789" r="64.674"/>
<g>
	<circle style="fill:#DBDBDB;" cx="374.568" cy="363.789" r="21.558"/>
	<polygon style="fill:#DBDBDB;" points="374.568,245.221 406.905,245.221 406.905,180.547 374.568,169.768 	"/>
</g>
<rect x="353.01" y="223.663" style="fill:#797781;" width="75.453" height="43.116"/>
<g>
	<path style="fill:#2E2D31;" d="M374.568,334.147c-16.344,0-29.642,13.297-29.642,29.642s13.298,29.642,29.642,29.642
		c16.344,0,29.642-13.297,29.642-29.642S390.913,334.147,374.568,334.147z M374.568,377.263c-7.43,0-13.474-6.044-13.474-13.474
		s6.044-13.474,13.474-13.474c7.43,0,13.474,6.044,13.474,13.474C388.042,371.218,381.998,377.263,374.568,377.263z"/>
	<path style="fill:#2E2D31;" d="M511.146,306.279l-32.337-64.674c-1.37-2.739-4.168-4.469-7.231-4.469h-35.032v-13.474
		c0-4.465-3.618-8.084-8.084-8.084h-13.474v-35.032c0-3.479-2.226-6.569-5.527-7.669l-32.337-10.779
		c-2.469-0.822-5.176-0.409-7.284,1.111c-2.107,1.52-3.357,3.96-3.357,6.559v45.809H353.01c-4.466,0-8.084,3.62-8.084,8.084v13.474
		h-26.947v-88.926c0-40.119-32.639-72.758-72.758-72.758h-97.011c-4.466,0-8.084,3.62-8.084,8.084v161.684
		c0,0.024,0.01,0.043,0.01,0.067c0.016,1.833,0.645,3.645,1.864,5.108l52.021,62.425v26.716h-16.168v-18.863
		c0-4.16-3.142-7.582-7.182-8.031c-13.904-32.489-46.053-53.948-81.744-53.948s-67.841,21.46-81.748,53.949
		C3.141,313.093,0,316.515,0,320.674v53.895c0,4.159,3.141,7.581,7.179,8.03c6.62,15.469,17.37,28.439,30.68,37.78H8.084
		c-4.466,0-8.084,3.62-8.084,8.084c0,4.465,3.618,8.084,8.084,8.084h431.158c4.466,0,8.084-3.62,8.084-8.084
		c0-4.465-3.618-8.084-8.084-8.084h-19.013c11.794-9.536,20.557-22.671,24.602-37.726h26.748c3.062,0,5.862-1.73,7.231-4.469
		l32.337-64.674C512.285,311.235,512.285,308.555,511.146,306.279z M382.653,180.985l16.168,5.389v29.204h-16.168V180.985z
		 M361.095,231.747h59.284v26.947h-59.284V231.747z M245.221,91.621c31.203,0,56.589,25.385,56.589,56.589v88.926h-26.947v-88.926
		c0-16.345-13.298-29.642-29.642-29.642h-88.926V91.621H245.221z M156.295,237.137v-102.4h88.926c7.43,0,13.474,6.044,13.474,13.474
		v88.926H156.295z M16.168,328.758h145.516v37.726H16.168V328.758z M88.926,274.863c26.789,0,51.145,14.766,63.771,37.726H25.154
		C37.781,289.629,62.138,274.863,88.926,274.863z M25.154,382.653h127.544c-12.626,22.96-36.984,37.726-63.771,37.726
		C62.138,420.379,37.781,405.613,25.154,382.653z M139.994,420.379c13.31-9.34,24.058-22.311,30.678-37.78
		c4.04-0.449,7.181-3.872,7.181-8.03v-18.863h16.168v40.421c0,4.465,3.618,8.084,8.084,8.084h107.789
		c1.314,0,2.551-0.32,3.649-0.876c4.201,6.46,9.391,12.215,15.364,17.045H139.994z M374.568,420.379
		c-31.203,0-56.589-25.385-56.589-56.589s25.387-56.589,56.589-56.589s56.589,25.385,56.589,56.589S405.771,420.379,374.568,420.379
		z M317.979,318.129V307.2h10.929C324.89,310.448,321.227,314.111,317.979,318.129z M466.583,366.484h-19.326
		c0.032-0.896,0.069-1.791,0.069-2.695c0-40.119-32.639-72.758-72.758-72.758h-64.674c-4.466,0-8.084,3.62-8.084,8.084v88.926
		h-91.621v-78.147c0-1.891-0.663-3.723-1.873-5.175l-42.845-51.415h144.424h35.032v13.474c0,4.465,3.618,8.084,8.084,8.084h75.453
		c4.466,0,8.084-3.62,8.084-8.084v-13.474h30.036l28.295,56.589L466.583,366.484z"/>
</g>
<g>
</g>
<g>
</g>
<g>
</g>
<g>
</g>
<g>
</g>
<g>
</g>
<g>
</g>
<g>
</g>
<g>
</g>
<g>
</g>
<g>
</g>
<g>
</g>
<g>
</g>
<g>
</g>
<g>
</g>
</svg>
