<?xml version="1.0" encoding="iso-8859-1"?>
<!-- Generator: Adobe Illustrator 19.0.0, SVG Export Plug-In . SVG Version: 6.00 Build 0)  -->
<svg version="1.1" id="Capa_1" xmlns="http://www.w3.org/2000/svg" xmlns:xlink="http://www.w3.org/1999/xlink" x="0px" y="0px"
	 viewBox="0 0 512 512" style="enable-background:new 0 0 512 512;" xml:space="preserve">
<polygon style="fill:#A0EBFF;" points="445.615,159.448 209.496,159.448 227.319,54.429 427.792,54.429 "/>
<g>
	<ellipse style="fill:#FFB69E;" cx="376.299" cy="79.597" rx="18.377" ry="20.371"/>
	<path style="fill:#FFB69E;" d="M421.009,129.604c-0.057-12.762-9.471-23.144-20.984-23.144c-15.864,0-31.741,0-47.604,0
		c-11.513,0-20.927,10.383-20.983,23.144l-0.076,18.536h89.726L421.009,129.604z"/>
</g>
<path style="fill:#64AFFF;" d="M421.009,129.604c-0.057-12.762-9.471-23.145-20.984-23.145H387.27
	c-0.156,6.001-5.287,11.054-11.318,11.054c-6.053,0-11.163-5.032-11.318-11.054h-12.215c-11.513,0-20.927,10.383-20.983,23.144
	l-0.076,18.536h89.726L421.009,129.604z"/>
<path style="fill:#373C41;" d="M342.287,92.141H312.49c-2.928,0-5.301-2.374-5.301-5.301v-6.224c0-2.928,2.374-5.301,5.301-5.301
	h29.797c2.928,0,5.301,2.374,5.301,5.301v6.224C347.588,89.767,345.215,92.141,342.287,92.141z"/>
<g style="opacity:0.38;">
	<polygon style="fill:#FFFFFF;" points="311.942,67.137 289.366,67.137 245.402,148.177 267.979,148.177 	"/>
</g>
<g style="opacity:0.36;">
	<polygon style="fill:#FFFFFF;" points="336.894,67.137 323.824,67.137 279.86,148.177 292.931,148.177 	"/>
</g>
<path style="fill:#373C41;" d="M209.679,324.974c-5.746,0-10.405-4.659-10.405-10.405v-84.171c0-15.911,12.899-28.809,28.809-28.809
	s28.809,12.898,28.809,28.809v84.171c0,5.746-4.659,10.405-10.405,10.405H209.679z"/>
<path style="fill:#272A2E;" d="M408.548,324.974c-5.746,0-10.405-4.659-10.405-10.405V228.1c0-14.642,12.899-26.511,28.809-26.511
	c15.911,0,28.809,11.869,28.809,26.511v86.469c0,5.746-4.659,10.405-10.405,10.405H408.548z"/>
<g>
	<rect x="209.774" y="281.002" style="fill:#50555A;" width="11.668" height="43.972"/>
	<rect x="234.727" y="281.002" style="fill:#50555A;" width="11.668" height="43.972"/>
	<rect x="408.645" y="281.002" style="fill:#50555A;" width="11.668" height="43.972"/>
	<rect x="433.598" y="281.002" style="fill:#50555A;" width="11.668" height="43.972"/>
</g>
<path style="fill:#D72846;" d="M207.56,173.625c-2.436,0-4.866-0.962-6.674-2.867l-25.662-27.057
	c-3.495-3.685-3.341-9.506,0.344-13.001c3.686-3.496,9.507-3.341,13.002,0.344l25.662,27.057c3.495,3.685,3.341,9.506-0.344,13.001
	C212.108,172.788,209.831,173.625,207.56,173.625z"/>
<path style="fill:#F75C66;" d="M154.148,149.176h29.211c6.279,0,11.369-5.09,11.369-11.369v-13.348
	c0-6.279-5.09-11.369-11.369-11.369h-29.211c-6.279,0-11.369,5.09-11.369,11.369v13.348
	C142.778,144.086,147.869,149.176,154.148,149.176z"/>
<path style="fill:#D72846;" d="M440.892,171.101c-3.685-3.495-3.84-9.315-0.345-13.001l25.661-27.057
	c3.495-3.685,9.315-3.84,13.001-0.344c3.685,3.495,3.84,9.315,0.345,13.001l-25.661,27.057
	C450.397,174.442,444.576,174.597,440.892,171.101z"/>
<path style="fill:#E64B55;" d="M500.631,149.176H471.42c-6.279,0-11.369-5.09-11.369-11.369v-13.348
	c0-6.279,5.09-11.369,11.369-11.369h29.211c6.279,0,11.369,5.09,11.369,11.369v13.348C512,144.086,506.91,149.176,500.631,149.176z"
	/>
<path style="fill:#D72846;" d="M459.85,167.959c1.361,7.299-4.244,14.057-11.677,14.057H206.865c-3.531,0-6.88-1.572-9.136-4.289
	c-2.257-2.717-3.188-6.296-2.541-9.768l21.429-114.878c1.049-5.623,5.957-9.7,11.677-9.7h198.45c5.721,0,10.628,4.077,11.677,9.7
	L459.85,167.959z M221.164,158.259h212.71l-16.998-91.122H238.162L221.164,158.259z"/>
<path style="fill:#696E73;" d="M376.462,117.998c-17.324,0-31.418,14.095-31.418,31.419s14.095,31.418,31.418,31.418
	c17.324,0,31.419-14.095,31.419-31.418C407.882,132.092,393.787,117.998,376.462,117.998z M376.462,170.842
	c-11.815,0-21.426-9.611-21.426-21.426c0-7.104,3.479-13.401,8.822-17.294c3.147-2.294,7.609-0.06,7.609,3.873
	c-0.221,3.849,0.656,6.249-1.288,9.003c-0.882,1.249-1.401,2.773-1.401,4.418c0,2.335,1.046,4.424,2.689,5.834v5.216h9.992v-5.215
	c1.644-1.41,2.69-3.498,2.69-5.834c0-1.646-0.519-3.169-1.402-4.419c-1.946-2.756-1.068-5.197-1.288-9.003
	c0-3.914,4.456-6.171,7.609-3.873c5.343,3.893,8.822,10.19,8.822,17.294C397.889,161.231,388.277,170.842,376.462,170.842z"/>
<path style="fill:#373C41;" d="M376.463,180.835c-17.324,0-31.419-14.095-31.419-31.418c0-17.324,14.095-31.418,31.419-31.418
	c17.324,0,31.418,14.095,31.418,31.418C407.882,166.741,393.787,180.835,376.463,180.835z M376.463,127.99
	c-11.815,0-21.426,9.611-21.426,21.426s9.612,21.426,21.426,21.426c11.815,0,21.426-9.611,21.426-21.426
	C397.889,137.603,388.278,127.99,376.463,127.99z"/>
<g style="opacity:0.22;">
	<path d="M256.893,299.747v-69.349c0-15.911-12.899-28.809-28.809-28.809s-28.809,12.899-28.809,28.809v58.655L256.893,299.747z"/>
	<path d="M455.762,299.747v-69.349c0-15.911-12.899-28.809-28.809-28.809c-15.91,0-28.809,12.899-28.809,28.809v58.655
		L455.762,299.747z"/>
</g>
<path style="fill:#E64B55;" d="M457.328,281.001H197.71c-12.896,0-23.35-10.454-23.35-23.35v-48.015
	c0-33.943,27.516-61.459,61.459-61.459H419.22c33.943,0,61.459,27.516,61.459,61.459v48.015
	C480.678,270.546,470.224,281.001,457.328,281.001z"/>
<path style="fill:#50555A;" d="M175.598,265.184c3.045,9.181,11.653,15.818,21.857,15.818h260.128
	c10.205,0,18.812-6.637,21.857-15.818H175.598z"/>
<g>
	<path style="fill:#D72846;" d="M370.331,265.184h-84.489c-6.532,0-11.828-5.295-11.828-11.828v-39.462
		c0-6.532,5.295-11.828,11.828-11.828h84.489c6.532,0,11.828,5.295,11.828,11.828v39.462
		C382.16,259.888,376.864,265.184,370.331,265.184z"/>
	<ellipse style="fill:#D72846;" cx="227.314" cy="221.863" rx="25.275" ry="25.285"/>
	<ellipse style="fill:#D72846;" cx="427.714" cy="221.863" rx="25.275" ry="25.285"/>
</g>
<g>
	<ellipse style="fill:#FAC855;" cx="227.314" cy="215.929" rx="25.275" ry="25.285"/>
	<ellipse style="fill:#FAC855;" cx="427.714" cy="215.929" rx="25.275" ry="25.285"/>
</g>
<path style="fill:#B9B9BE;" d="M352.873,269.374h-49.826c-2.927,0-5.3-2.373-5.3-5.3v-13.033c0-2.927,2.373-5.3,5.3-5.3h49.826
	c2.927,0,5.3,2.373,5.3,5.3v13.033C358.173,267,355.801,269.374,352.873,269.374z"/>
<path style="fill:#D2D2D7;" d="M352.94,245.741h-49.96c-2.891,0-5.233,2.342-5.233,5.233v5.941c0-2.891,2.343-5.233,5.233-5.233
	h49.96c2.891,0,5.233,2.342,5.233,5.233v-5.941C358.173,248.084,355.83,245.741,352.94,245.741z"/>
<g>
	<ellipse style="fill:#FAF58C;" cx="427.714" cy="215.929" rx="14.329" ry="14.337"/>
	<ellipse style="fill:#FAF58C;" cx="227.314" cy="215.929" rx="14.329" ry="14.337"/>
</g>
<path style="fill:#E64B55;" d="M362.982,212.845h-70.044c-4.079,0-7.386,3.307-7.386,7.386s3.307,7.386,7.386,7.386h70.044
	c4.079,0,7.386-3.307,7.386-7.386S367.061,212.845,362.982,212.845z"/>
<path style="fill:#F75C66;" d="M404.788,173.319c-5.79,8.039-15.093,12.803-24.999,12.803H270.186
	c-6.728,0-13.046-3.236-16.977-8.695l-21.066-29.249h190.753L404.788,173.319z"/>
<g>
	<path style="fill:#FA870A;" d="M199.274,255.19v-9.574c0-3.218-2.609-5.827-5.828-5.827h-19.088v18.116
		c0,1.056,0.077,2.094,0.215,3.113h18.873C196.666,261.018,199.274,258.409,199.274,255.19z"/>
	<path style="fill:#FA870A;" d="M462.006,239.789c-3.218,0-5.827,2.609-5.827,5.827v9.574c0,3.218,2.609,5.827,5.827,5.827h18.457
		c0.138-1.019,0.215-2.057,0.215-3.113v-18.116H462.006z"/>
</g>
<rect x="320.68" y="67.137" style="fill:#696E73;" width="14.556" height="8.178"/>
<polygon style="fill:#A0EBFF;" points="302.837,303.094 66.718,303.094 84.541,198.075 285.013,198.075 "/>
<g>
	<ellipse style="fill:#BA6746;" cx="233.52" cy="223.241" rx="18.377" ry="20.371"/>
	<path style="fill:#BA6746;" d="M278.231,273.249c-0.057-12.762-9.471-23.145-20.984-23.145c-15.864,0-31.741,0-47.604,0
		c-11.513,0-20.927,10.383-20.983,23.144l-0.076,18.536h89.726L278.231,273.249z"/>
</g>
<path style="fill:#CD2D23;" d="M278.231,273.249c-0.057-12.762-9.471-23.145-20.984-23.145h-12.754
	c-0.156,6.001-5.287,11.054-11.318,11.054c-6.053,0-11.163-5.032-11.318-11.054h-12.215c-11.513,0-20.927,10.383-20.983,23.144
	l-0.076,18.536h89.726L278.231,273.249z"/>
<path style="fill:#373C41;" d="M199.509,235.786h-29.797c-2.928,0-5.301-2.374-5.301-5.301v-6.224c0-2.928,2.374-5.301,5.301-5.301
	h29.797c2.928,0,5.301,2.374,5.301,5.301v6.224C204.81,233.413,202.437,235.786,199.509,235.786z"/>
<g style="opacity:0.38;">
	<polygon style="fill:#FFFFFF;" points="169.164,210.783 146.588,210.783 102.624,291.824 125.2,291.824 	"/>
</g>
<g style="opacity:0.36;">
	<polygon style="fill:#FFFFFF;" points="194.116,210.783 181.046,210.783 137.083,291.824 150.153,291.824 	"/>
</g>
<path style="fill:#373C41;" d="M66.901,468.619c-5.746,0-10.405-4.659-10.405-10.405v-84.171c0-15.911,12.899-28.809,28.809-28.809
	s28.809,12.898,28.809,28.809v84.171c0,5.746-4.659,10.405-10.405,10.405L66.901,468.619L66.901,468.619z"/>
<path style="fill:#272A2E;" d="M265.77,468.619c-5.746,0-10.405-4.659-10.405-10.405v-86.469c0-14.642,12.899-26.511,28.809-26.511
	c15.911,0,28.809,11.869,28.809,26.511v86.469c0,5.746-4.659,10.405-10.405,10.405H265.77z"/>
<g>
	<rect x="66.994" y="424.647" style="fill:#50555A;" width="11.668" height="43.972"/>
	<rect x="91.948" y="424.647" style="fill:#50555A;" width="11.668" height="43.972"/>
	<rect x="265.866" y="424.647" style="fill:#50555A;" width="11.668" height="43.972"/>
	<rect x="290.819" y="424.647" style="fill:#50555A;" width="11.668" height="43.972"/>
</g>
<path style="fill:#1E87DC;" d="M64.782,317.271c-2.436,0-4.866-0.962-6.674-2.867l-25.662-27.057
	c-3.495-3.685-3.34-9.506,0.344-13.001c3.686-3.495,9.507-3.341,13.002,0.344l25.662,27.057c3.495,3.685,3.34,9.506-0.344,13.001
	C69.33,316.434,67.053,317.271,64.782,317.271z"/>
<path style="fill:#3DA0FF;" d="M11.369,292.821H40.58c6.279,0,11.369-5.09,11.369-11.369v-13.348c0-6.279-5.09-11.369-11.369-11.369
	H11.369C5.09,256.736,0,261.826,0,268.105v13.348C0,287.731,5.09,292.821,11.369,292.821z"/>
<path style="fill:#1E87DC;" d="M298.115,314.747c-3.685-3.495-3.84-9.315-0.345-13.001l25.661-27.057
	c3.495-3.685,9.315-3.84,13.001-0.344c3.685,3.495,3.84,9.315,0.345,13.001l-25.661,27.057
	C307.619,318.087,301.799,318.242,298.115,314.747z"/>
<path style="fill:#3DA0FF;" d="M357.852,292.821h-29.211c-6.279,0-11.369-5.09-11.369-11.369v-13.348
	c0-6.279,5.09-11.369,11.369-11.369h29.211c6.279,0,11.369,5.09,11.369,11.369v13.348
	C369.222,287.731,364.131,292.821,357.852,292.821z"/>
<path style="fill:#1E87DC;" d="M317.071,311.605c1.361,7.299-4.244,14.057-11.677,14.057H64.087c-3.531,0-6.88-1.572-9.136-4.289
	c-2.257-2.717-3.188-6.296-2.541-9.768l21.429-114.878c1.049-5.623,5.957-9.7,11.677-9.7h198.45c5.721,0,10.628,4.077,11.677,9.7
	L317.071,311.605z M78.386,301.904h212.71l-16.998-91.122H95.383L78.386,301.904z"/>
<path style="fill:#696E73;" d="M233.685,261.643c-17.324,0-31.418,14.095-31.418,31.419c0,17.324,14.095,31.418,31.418,31.418
	c17.324,0,31.419-14.095,31.419-31.418C265.103,275.738,251.009,261.643,233.685,261.643z M233.685,314.489
	c-11.815,0-21.426-9.611-21.426-21.426c0-7.104,3.479-13.401,8.822-17.294c3.147-2.294,7.609-0.06,7.609,3.873
	c-0.221,3.849,0.656,6.249-1.288,9.003c-0.882,1.249-1.401,2.773-1.401,4.418c0,2.335,1.046,4.424,2.689,5.834v5.216h9.992v-5.215
	c1.644-1.41,2.69-3.498,2.69-5.834c0-1.646-0.519-3.169-1.402-4.419c-1.946-2.756-1.068-5.197-1.288-9.003
	c0-3.914,4.456-6.171,7.609-3.873c5.343,3.893,8.822,10.19,8.822,17.294C255.111,304.876,245.499,314.489,233.685,314.489z"/>
<path style="fill:#373C41;" d="M233.685,324.481c-17.324,0-31.419-14.095-31.419-31.418c0-17.324,14.095-31.418,31.419-31.418
	s31.418,14.095,31.418,31.418C265.103,310.386,251.009,324.481,233.685,324.481z M233.685,271.637
	c-11.815,0-21.426,9.611-21.426,21.426c0,11.815,9.612,21.426,21.426,21.426c11.815,0,21.426-9.611,21.426-21.426
	C255.111,281.248,245.5,271.637,233.685,271.637z"/>
<g style="opacity:0.22;">
	<path d="M114.115,443.392v-69.349c0-15.911-12.899-28.809-28.809-28.809s-28.809,12.898-28.809,28.809v58.655L114.115,443.392z"/>
	<path d="M312.984,443.392v-69.349c0-15.911-12.899-28.809-28.809-28.809s-28.809,12.898-28.809,28.809v58.655L312.984,443.392z"/>
</g>
<path style="fill:#2896FF;" d="M337.9,401.303c0,12.893-10.452,23.344-23.344,23.344H54.774c-12.81,0-23.193-10.384-23.193-23.193
	v-48.729c0-33.635,27.266-60.901,60.901-60.901h184.516c33.635,0,60.901,27.266,60.901,60.901V401.303z"/>
<path style="fill:#50555A;" d="M32.819,408.83c3.045,9.181,11.653,15.818,21.857,15.818h260.128
	c10.205,0,18.812-6.637,21.857-15.818H32.819z"/>
<g>
	<path style="fill:#1E73BE;" d="M227.554,408.83h-84.489c-6.532,0-11.828-5.295-11.828-11.828V357.54
		c0-6.532,5.295-11.828,11.828-11.828h84.489c6.532,0,11.828,5.295,11.828,11.828v39.462
		C239.382,403.534,234.086,408.83,227.554,408.83z"/>
	<ellipse style="fill:#1E73BE;" cx="84.545" cy="365.517" rx="25.275" ry="25.285"/>
	<ellipse style="fill:#1E73BE;" cx="284.945" cy="365.517" rx="25.275" ry="25.285"/>
</g>
<g>
	<ellipse style="fill:#FAC855;" cx="84.545" cy="359.573" rx="25.275" ry="25.285"/>
	<ellipse style="fill:#FAC855;" cx="284.945" cy="359.573" rx="25.275" ry="25.285"/>
</g>
<path style="fill:#B9B9BE;" d="M210.199,413.019h-50.035c-2.869,0-5.196-2.326-5.196-5.196v-13.241c0-2.869,2.326-5.196,5.196-5.196
	h50.035c2.869,0,5.196,2.326,5.196,5.196v13.241C215.395,410.693,213.069,413.019,210.199,413.019z"/>
<path style="fill:#D2D2D7;" d="M210.162,389.386h-49.96c-2.891,0-5.233,2.342-5.233,5.233v5.941c0-2.891,2.343-5.233,5.233-5.233
	h49.96c2.891,0,5.233,2.342,5.233,5.233v-5.941C215.395,391.73,213.053,389.386,210.162,389.386z"/>
<g>
	<ellipse style="fill:#FAF58C;" cx="284.945" cy="359.573" rx="14.329" ry="14.337"/>
	<ellipse style="fill:#FAF58C;" cx="84.545" cy="359.573" rx="14.329" ry="14.337"/>
</g>
<path style="fill:#2896FF;" d="M220.204,356.491H150.16c-4.079,0-7.386,3.307-7.386,7.386c0,4.079,3.307,7.386,7.386,7.386h70.044
	c4.079,0,7.386-3.307,7.386-7.386C227.59,359.798,224.283,356.491,220.204,356.491z"/>
<path style="fill:#3DA0FF;" d="M262.009,316.964c-5.79,8.039-15.093,12.803-24.999,12.803H127.408
	c-6.728,0-13.046-3.236-16.977-8.695l-21.066-29.249h190.753L262.009,316.964z"/>
<g>
	<path style="fill:#FA870A;" d="M50.669,404.664c3.218,0,5.828-2.609,5.828-5.827v-9.574c0-3.218-2.609-5.827-5.828-5.827H31.581
		v18.116c0,1.056,0.077,2.094,0.215,3.113L50.669,404.664L50.669,404.664z"/>
	<path style="fill:#FA870A;" d="M319.228,383.434c-3.218,0-5.827,2.609-5.827,5.827v9.574c0,3.218,2.609,5.827,5.827,5.827h18.457
		c0.138-1.019,0.215-2.057,0.215-3.113v-18.116L319.228,383.434L319.228,383.434z"/>
</g>
<rect x="177.901" y="210.78" style="fill:#696E73;" width="14.556" height="8.178"/>
<g>
</g>
<g>
</g>
<g>
</g>
<g>
</g>
<g>
</g>
<g>
</g>
<g>
</g>
<g>
</g>
<g>
</g>
<g>
</g>
<g>
</g>
<g>
</g>
<g>
</g>
<g>
</g>
<g>
</g>
</svg>
